<svg width="22" height="23" viewBox="0 0 22 23" fill="none" xmlns="http://www.w3.org/2000/svg">
<path d="M3.00682 22.7291H18.4336C20.4382 22.7291 21.4405 22.0746 21.4405 20.7655C21.4405 19.9637 21.195 19.1087 20.7041 18.2005C20.2132 17.2923 19.5014 16.4373 18.5686 15.6355C17.6441 14.8255 16.5191 14.1668 15.1936 13.6596C13.8764 13.1523 12.3873 12.8987 10.7264 12.8987C9.05727 12.8987 7.56 13.1523 6.23454 13.6596C4.91727 14.1668 3.79227 14.8255 2.85954 15.6355C1.935 16.4373 1.22727 17.2923 0.736362 18.2005C0.245453 19.1087 -1.79932e-06 19.9637 -1.79932e-06 20.7655C-1.79932e-06 22.0746 1.00227 22.7291 3.00682 22.7291ZM2.43 20.8759C2.26636 20.8759 2.14773 20.8514 2.07409 20.8023C2.00863 20.7532 1.97591 20.6632 1.97591 20.5323C1.97591 20.0332 2.16409 19.4564 2.54045 18.8018C2.925 18.1391 3.48954 17.5009 4.23409 16.8873C4.97863 16.2737 5.895 15.7664 6.98318 15.3655C8.07136 14.9564 9.31909 14.7518 10.7264 14.7518C12.1336 14.7518 13.3773 14.9564 14.4573 15.3655C15.5455 15.7664 16.4618 16.2737 17.2064 16.8873C17.9509 17.5009 18.5114 18.1391 18.8877 18.8018C19.2723 19.4564 19.4645 20.0332 19.4645 20.5323C19.4645 20.6632 19.4277 20.7532 19.3541 20.8023C19.2886 20.8514 19.1782 20.8759 19.0227 20.8759H2.43ZM10.7264 11.3768C11.7 11.3768 12.5877 11.115 13.3895 10.5914C14.1914 10.0678 14.8295 9.3723 15.3041 8.50503C15.7868 7.62957 16.0282 6.66412 16.0282 5.60866C16.0282 4.56139 15.7909 3.61639 15.3164 2.77366C14.8418 1.92276 14.2036 1.24776 13.4018 0.748665C12.6 0.249574 11.7082 2.8383e-05 10.7264 2.8383e-05C9.75273 2.8383e-05 8.865 0.253665 8.06318 0.760937C7.26136 1.26821 6.61909 1.9473 6.13636 2.79821C5.66182 3.64912 5.42454 4.59412 5.42454 5.63321C5.42454 6.68048 5.66182 7.64185 6.13636 8.5173C6.61909 9.38457 7.26136 10.08 8.06318 10.6037C8.865 11.1191 9.75273 11.3768 10.7264 11.3768ZM10.7264 9.52366C10.1291 9.52366 9.57682 9.35185 9.06954 9.00821C8.57045 8.65639 8.16545 8.18594 7.85454 7.59685C7.55182 7.00776 7.40045 6.35321 7.40045 5.63321C7.40045 4.92139 7.55182 4.28321 7.85454 3.71866C8.15727 3.14594 8.55818 2.69185 9.05727 2.35639C9.56454 2.02094 10.1209 1.85321 10.7264 1.85321C11.34 1.85321 11.8964 2.01685 12.3955 2.34412C12.9027 2.67139 13.3036 3.12139 13.5982 3.69412C13.9009 4.25866 14.0523 4.89685 14.0523 5.60866C14.0523 6.32866 13.9009 6.9873 13.5982 7.58457C13.2955 8.17366 12.8905 8.64412 12.3832 8.99594C11.8841 9.34776 11.3318 9.52366 10.7264 9.52366Z" fill="black"/>
</svg>
