<svg width="29" height="24" viewBox="0 0 29 24" fill="none" xmlns="http://www.w3.org/2000/svg">
<g clip-path="url(#clip0_302_7)">
<path d="M27.0681 19.3145C29.6728 14.6844 25.9617 7.65536 18.7792 3.61482C11.5967 -0.425718 4.05957 0.542413 1.45486 5.17259C-1.14985 9.80276 5.10257 15.8418 12.2851 19.8823C19.4676 23.9228 24.4634 23.9447 27.0681 19.3145Z" stroke="black" stroke-width="1.74482" stroke-miterlimit="10"/>
<path d="M15.115 12.3803C17.2982 10.6984 18.7406 8.90978 18.3366 8.38534C17.9325 7.8609 15.8351 8.79924 13.6519 10.4812C11.4686 12.1631 10.0263 13.9518 10.4303 14.4762C10.8343 15.0006 12.9317 14.0623 15.115 12.3803Z" fill="black"/>
<path d="M9.8371 8.4939C11.7837 6.99426 13.0342 5.35342 12.6302 4.82898C12.2262 4.30454 10.3206 5.0951 8.37402 6.59473C6.42741 8.09436 5.17689 9.7352 5.58091 10.2596C5.98493 10.7841 7.89049 9.99353 9.8371 8.4939Z" fill="black"/>
<path d="M20.1824 16.2529C22.1291 14.7533 23.3796 13.1125 22.9756 12.588C22.5715 12.0636 20.666 12.8541 18.7194 14.3538C16.7727 15.8534 15.5222 17.4942 15.9262 18.0187C16.3303 18.5431 18.2358 17.7526 20.1824 16.2529Z" fill="black"/>
</g>
<defs>
<clipPath id="clip0_302_7">
<rect width="28.7728" height="23.9235" fill="white"/>
</clipPath>
</defs>
</svg>
